<svg id="Layer_3" enable-background="new 0 0 96 96" height="512" viewBox="0 0 96 96" width="512" xmlns="http://www.w3.org/2000/svg"><path d="m67 7v14c0 2.209 1.791 4 4 4h5v6l6-6h7c2.209 0 4-1.791 4-4v-14c0-2.209-1.791-4-4-4h-18c-2.209 0-4 1.791-4 4z" fill="#ec2f53"/><path d="m81.515 8.978-1.515 1.575-1.515-1.575c-1.255-1.304-3.289-1.304-4.544 0s-1.255 3.419 0 4.724l1.515 1.575 4.544 4.723 4.544-4.724 1.515-1.575c1.255-1.304 1.255-3.419 0-4.724-1.255-1.303-3.289-1.303-4.544.001z" fill="#f0f0f0"/><path d="m21 36v2c0 2.21-1.79 4-4 4h-10c-2.21 0-4-1.79-4-4v-2z" fill="#f9aa3d"/><path d="m69 36v2c0 2.21-1.79 4-4 4h-10c-2.21 0-4-1.79-4-4v-2z" fill="#f9aa3d"/><path d="m24.99 45.01s.32 5.68-2.99 8.99-8.99 2.99-8.99 2.99-.32-5.68 2.99-8.99 8.99-2.99 8.99-2.99z" fill="#63b2b9"/><path d="m7.5 57.5c1.65 1.66 1.5 4.5 1.5 4.5s-2.84.15-4.5-1.5c-1.65-1.66-1.5-4.5-1.5-4.5s2.84-.15 4.5 1.5z" fill="#63b2b9"/><circle cx="70" cy="70" fill="#f66533" r="23"/><path d="m20 70c2.67 0 2.67 2 5.33 2 2.67 0 2.67-2 5.33-2 2.67 0 2.67 2 5.33 2 2.67 0 2.67-2 5.34-2 2.66 0 2.66 2 5.33 2s2.67-2 5.34-2l.06-.05.04.05 12.9 17c0 1.96-.94 3.7-2.39 4.78-1 .77-2.25 1.22-3.61 1.22h-46c-1.66 0-3.16-.67-4.24-1.76-1.09-1.08-1.76-2.58-1.76-4.24l12.93-17.05z" fill="#63b2b9"/><path d="m44 18-8-15-8 15 4 11h8z" fill="#f9aa3d"/><circle cx="36" cy="18" fill="#f0f0f0" r="2"/><path d="m43 58v-23c1.657 0 3-1.343 3-3 0-1.657-1.343-3-3-3h-14c-1.657 0-3 1.343-3 3 0 1.657 1.343 3 3 3v23l-9.07 11.95.07.05c2.67 0 2.67 2 5.33 2 2.67 0 2.67-2 5.33-2 2.67 0 2.67 2 5.33 2 2.67 0 2.67-2 5.34-2 2.66 0 2.66 2 5.33 2s2.67-2 5.34-2l.06-.05z" fill="#f0f0f0"/><path d="m70 46c-10.277 0-19.325 6.515-22.657 16.07l-3.343-4.406v-21.789c.685-.176 1.313-.533 1.827-1.047.757-.757 1.173-1.761 1.173-2.828s-.416-2.071-1.173-2.827c-.756-.756-1.76-1.173-2.827-1.173h-1.572l3.272-9h13.838l-6.222 16h-1.316c-.553 0-1 .448-1 1v2c0 2.757 2.243 5 5 5h10c2.757 0 5-2.243 5-5v-2c0-.552-.447-1-1-1h-1.316l-6.752-17.362c-.15-.384-.52-.638-.932-.638h-15.399l-7.718-14.47c-.348-.651-1.418-.651-1.766 0l-7.717 14.47h-15.4c-.412 0-.782.253-.932.638l-6.752 17.362h-1.316c-.553 0-1 .448-1 1v2c0 2.757 2.243 5 5 5h10c2.757 0 5-2.243 5-5v-2c0-.552-.447-1-1-1h-1.316l-6.222-16h13.838l3.272 9h-1.572c-2.206 0-4 1.794-4 4 0 1.067.416 2.071 1.173 2.827.514.514 1.143.871 1.827 1.047v21.789l-14 18.455v-18.129c1.903-.071 5.974-.558 8.703-3.286 3.584-3.584 3.302-9.5 3.287-9.75-.027-.509-.434-.915-.943-.943-.25-.012-6.163-.298-9.75 3.288-3.425 3.425-3.319 8.967-3.291 9.671 0 .01-.006.02-.006.031v6.586l-2.004-2.004c-.026-.975-.26-3.256-1.791-4.787-1.949-1.949-5.127-1.796-5.256-1.79-.51.028-.916.435-.943.943-.008.134-.159 3.308 1.789 5.256 1.536 1.536 3.817 1.764 4.786 1.79l3.419 3.42v12.34l-5.797 7.641c-.132.175-.203.387-.203.605 0 1.878.73 3.637 2.05 4.944 1.313 1.326 3.071 2.056 4.95 2.056h46c1.367 0 2.654-.405 3.766-1.132 2.336.741 4.765 1.132 7.234 1.132 13.233 0 24-10.767 24-24s-10.766-24-24-24zm-64.791 13.791c-.77-.77-1.052-1.917-1.153-2.735.819.102 1.966.383 2.735 1.153s1.052 1.916 1.153 2.735c-.819-.101-1.965-.383-2.735-1.153zm11.502-11.08c2.182-2.181 5.617-2.617 7.272-2.694-.077 1.656-.513 5.091-2.694 7.272-1.624 1.624-3.942 2.279-5.704 2.54l5.122-5.122c.391-.391.391-1.023 0-1.414s-1.023-.391-1.414 0l-5.123 5.123c.262-1.763.917-4.08 2.541-5.705zm75.264 20.289h-20.975v-5.042c6.199-.392 11.645-4.381 13.895-10.131 4.136 3.812 6.81 9.184 7.08 15.173zm-26.178 17.396-4.222-5.565c2.157-1.625 4.734-2.592 7.425-2.786v13.915c-1.522-.069-3.026-.282-4.493-.661.949-1.214 1.493-2.727 1.493-4.299 0-.218-.071-.43-.203-.604zm5.203-8.354c5.599.404 10.471 4.168 12.26 9.499-3.441 2.608-7.669 4.227-12.26 4.434zm0-30.016c4.591.207 8.819 1.826 12.26 4.434-1.789 5.331-6.66 9.095-12.26 9.498zm-2 13.932c-5.602-.404-10.476-4.172-12.263-9.507 3.469-2.619 7.714-4.203 12.263-4.409zm-13.902-8.147c2.246 5.759 7.697 9.756 13.902 10.148v12.087c-3.128.196-6.129 1.306-8.633 3.194l-6.249-8.24h11.882c.553 0 1-.448 1-1s-.447-1-1-1h-13.4l-3.767-4.965c1.132-4.025 3.334-7.53 6.265-10.224zm10.97-17.448c.15.384.52.637.932.637h1v1c0 1.654-1.346 3-3 3h-10c-1.654 0-3-1.346-3-3v-1h.977.046 9.977c.553 0 1-.448 1-1s-.447-1-1-1h-8.538l5.538-14.241zm-29.068-18.363c0 .551-.448 1-1 1s-1-.449-1-1 .448-1 1-1 1 .449 1 1zm-17 20c0 1.654-1.346 3-3 3h-10c-1.654 0-3-1.346-3-3v-1h16zm-13.538-3 5.538-14.241 5.539 14.241zm23.335 23.605c.132-.174.203-.386.203-.605v-23c0-.552-.447-1-1-1-.532 0-1.034-.208-1.413-.587s-.587-.88-.587-1.413c0-1.103.897-2 2-2h3c.326 0 .632-.159.819-.426s.232-.609.12-.916l-3.848-10.581 5.909-11.077v8.184c-1.161.414-2 1.514-2 2.816 0 1.654 1.346 3 3 3s3-1.346 3-3c0-1.302-.839-2.402-2-2.816v-8.184l5.908 11.077-3.608 9.923h-3.3c-.553 0-1 .448-1 1s.447 1 1 1h7c.532 0 1.034.208 1.413.587s.587.881.587 1.413-.208 1.035-.587 1.413-.881.587-1.413.587c-.553 0-1 .448-1 1v23c0 .218.071.431.203.604l8.102 10.679c-.667.243-1.153.601-1.573.916-.62.465-1.067.8-2.068.8s-1.449-.335-2.069-.8c-.713-.535-1.601-1.2-3.269-1.2-1.667 0-2.554.666-3.267 1.2-.62.464-1.067.8-2.067.8-.998 0-1.445-.335-2.063-.8-.713-.535-1.6-1.2-3.266-1.2-1.667 0-2.554.666-3.267 1.2-.618.464-1.065.8-2.064.8-1 0-1.447-.335-2.065-.8-.42-.315-.906-.673-1.571-.916zm-16.797 33.395c-1.341 0-2.595-.52-3.536-1.47-.868-.86-1.377-1.988-1.454-3.207l12.358-16.29c.739.077 1.165.367 1.697.766.713.535 1.6 1.2 3.267 1.2 1.666 0 2.553-.666 3.266-1.2.618-.464 1.065-.8 2.065-.8.999 0 1.446.335 2.064.8.713.535 1.6 1.2 3.265 1.2 1.667 0 2.554-.666 3.267-1.2.62-.464 1.067-.8 2.067-.8 1.001 0 1.449.335 2.069.8.713.535 1.601 1.2 3.269 1.2 1.667 0 2.555-.665 3.268-1.2.533-.399.961-.69 1.701-.767l12.357 16.289c-.095 1.444-.819 2.793-1.989 3.665-.861.664-1.898 1.014-3.001 1.014zm71.895-5.827c-2.25-5.75-7.696-9.74-13.895-10.131v-5.042h20.975c-.27 5.989-2.944 11.361-7.08 15.173z"/><path d="m33.848 75.012-13 2c-.488.075-.848.495-.848.988v6.405c-.587-.251-1.262-.405-2-.405-2.243 0-4 1.318-4 3s1.757 3 4 3 4-1.318 4-3v-4.142l11-1.692v2.239c-.587-.251-1.262-.405-2-.405-2.243 0-4 1.318-4 3s1.757 3 4 3 4-1.318 4-3v-10c0-.292-.127-.569-.349-.759-.221-.19-.513-.273-.803-.229zm-15.848 12.988c-1.221 0-2-.592-2-1s.779-1 2-1 2 .592 2 1-.779 1-2 1zm4-7.165v-1.977l11-1.692v1.977zm9 6.165c-1.221 0-2-.592-2-1s.779-1 2-1 2 .592 2 1-.779 1-2 1z"/><path d="m39 77h12c.553 0 1-.448 1-1s-.447-1-1-1h-12c-.553 0-1 .448-1 1s.447 1 1 1z"/><path d="m39 81h12c.553 0 1-.448 1-1s-.447-1-1-1h-12c-.553 0-1 .448-1 1s.447 1 1 1z"/><path d="m51 83h-12c-.553 0-1 .448-1 1s.447 1 1 1h12c.553 0 1-.448 1-1s-.447-1-1-1z"/><path d="m45 87h-6c-.553 0-1 .448-1 1s.447 1 1 1h6c.553 0 1-.448 1-1s-.447-1-1-1z"/><path d="m33 39h5c.553 0 1-.448 1-1s-.447-1-1-1h-5c-.553 0-1 .448-1 1s.447 1 1 1z"/><path d="m33 43h3c.553 0 1-.448 1-1s-.447-1-1-1h-3c-.553 0-1 .448-1 1s.447 1 1 1z"/><path d="m33 47h5c.553 0 1-.448 1-1s-.447-1-1-1h-5c-.553 0-1 .448-1 1s.447 1 1 1z"/><path d="m33 51h3c.553 0 1-.448 1-1s-.447-1-1-1h-3c-.553 0-1 .448-1 1s.447 1 1 1z"/><path d="m33 55h5c.553 0 1-.448 1-1s-.447-1-1-1h-5c-.553 0-1 .448-1 1s.447 1 1 1z"/><path d="m89 2h-18c-2.757 0-5 2.243-5 5v14c0 2.757 2.243 5 5 5h4v5c0 .404.243.769.617.924.124.051.254.076.383.076.26 0 .516-.102.707-.293l5.707-5.707h6.586c2.757 0 5-2.243 5-5v-14c0-2.757-2.243-5-5-5zm3 19c0 1.654-1.346 3-3 3h-7c-.266 0-.52.105-.707.293l-4.293 4.293v-3.586c0-.552-.447-1-1-1h-5c-1.654 0-3-1.346-3-3v-14c0-1.654 1.346-3 3-3h18c1.654 0 3 1.346 3 3z"/><path d="m83.786 7c-1.132 0-2.195.457-2.992 1.285l-.794.826-.794-.825c-.797-.829-1.86-1.286-2.992-1.286-1.133 0-2.196.457-2.993 1.285-1.621 1.685-1.621 4.425 0 6.11l6.059 6.298c.188.196.449.307.72.307s.532-.111.721-.307l6.059-6.298c1.621-1.685 1.621-4.425 0-6.11-.797-.828-1.861-1.285-2.994-1.285zm1.552 6.009-5.338 5.549-5.338-5.549c-.885-.92-.885-2.417 0-3.336.417-.434.968-.673 1.552-.673.583 0 1.134.239 1.551.672l1.515 1.574c.377.392 1.064.392 1.441 0l1.515-1.574c.834-.868 2.269-.866 3.103 0 .884.92.884 2.417-.001 3.337z"/><circle cx="49" cy="88" r="1"/><circle cx="53" cy="88" r="1"/><circle cx="57" cy="88" r="1"/></svg>