<svg id="Capa_1" enable-background="new 0 0 512.001 512.001" height="512" viewBox="0 0 512.001 512.001" width="512" xmlns="http://www.w3.org/2000/svg"><g><g><path clip-rule="evenodd" d="m312.253 193.869c10.034-47.112-3.231-98.193-39.826-134.788-57.429-57.43-150.517-57.43-207.946 0-46.912 46.913-55.473 117.667-25.738 173.283l-28.743 89.15 89.148-28.744c31.067 16.611 66.868 21.26 100.6 13.975 26.645-5.783 51.986-19.021 72.679-39.714 20.834-20.834 34.1-46.346 39.826-73.162z" fill="#bfdbff" fill-rule="evenodd"/></g><g><path clip-rule="evenodd" d="m473.229 406.866c29.763-55.616 21.174-126.37-25.738-173.283-36.708-36.709-88.014-49.947-135.238-39.714-5.726 26.816-18.992 52.328-39.826 73.163-20.693 20.693-46.034 33.931-72.679 39.714-10.034 47.112 3.231 98.193 39.826 134.788 46.913 46.914 117.636 55.474 173.279 25.739l89.147 28.743z" fill="#ffda8f" fill-rule="evenodd"/></g><g><path d="m352.582 267.797c-.006-.013-.012-.022-.018-.035-.961-2.044-2.613-3.776-4.82-4.805-5.004-2.334-10.955-.169-13.289 4.838l-61.085 131.019c-2.333 5.006-.167 10.955 4.838 13.289 1.367.638 2.804.938 4.219.938 3.766 0 7.374-2.138 9.07-5.776l19.075-40.913h65.875l19.065 40.911c1.696 3.64 5.304 5.778 9.07 5.778 1.415 0 2.851-.301 4.218-.938 5.006-2.333 7.173-8.282 4.84-13.288zm-32.686 78.555 23.62-50.662 23.609 50.662z"/><path d="m511.517 492.945-27.492-85.188c14.089-28.221 19.409-60.781 14.991-92.189-4.776-33.954-20.148-64.75-44.454-89.057-34.501-34.501-82.296-50.731-130.176-44.83 3.738-31.274-1.833-62.446-16.223-90.436-2.525-4.912-8.553-6.848-13.466-4.321-4.912 2.525-6.846 8.554-4.321 13.466 27.325 53.152 17.27 117.279-25.021 159.57-42.33 42.332-108.738 52.196-161.492 23.992-2.393-1.279-5.203-1.53-7.784-.699l-70.573 22.754 22.754-70.575c.833-2.582.58-5.391-.699-7.783-28.205-52.755-18.339-119.165 23.989-161.495 42.358-42.334 106.512-52.369 159.643-24.973 4.909 2.531 10.94.604 13.471-4.305 2.531-4.908.604-10.939-4.305-13.471-29.347-15.132-62.215-20.555-95.047-15.684-33.487 4.969-63.882 20.282-87.902 44.288-24.302 24.304-39.67 55.099-44.443 89.058-4.414 31.401.905 63.964 14.982 92.188l-27.466 85.191c-1.151 3.571-.207 7.486 2.447 10.14 1.905 1.905 4.46 2.929 7.072 2.929 1.026 0 2.061-.158 3.068-.482l85.188-27.467c27.373 13.654 58.827 19.067 89.344 15.354-5.718 47.738 10.54 95.35 44.902 129.686 24.303 24.303 55.094 39.672 89.044 44.444 31.397 4.416 63.959-.903 92.195-14.982l85.189 27.467c1.007.324 2.042.482 3.068.482 2.612 0 5.168-1.024 7.073-2.93 2.652-2.655 3.597-6.571 2.444-10.142zm-95.596-35.19c-2.582-.831-5.391-.581-7.782.698-53.602 28.646-118.501 19.004-161.497-23.994-31.5-31.475-45.553-75.741-38.266-119.496 26.853-6.991 51.175-20.914 71.121-40.861 20.058-20.059 34.044-44.577 41-71.633 43.874-7.464 88.3 6.561 119.922 38.184 42.348 42.35 52.214 108.758 23.993 161.493-1.281 2.395-1.534 5.206-.7 7.79l22.775 70.57z"/><path d="m239.552 156.294c0-42.908-34.895-77.816-77.786-77.816-42.907 0-77.815 34.908-77.815 77.816 0 42.893 34.908 77.788 77.815 77.788 17.837 0 34.278-6.049 47.415-16.184l25.42 25.421c1.953 1.952 4.512 2.929 7.071 2.929s5.119-.977 7.071-2.929c3.905-3.905 3.906-10.237 0-14.143l-25.415-25.415c10.158-13.145 16.224-29.607 16.224-47.467zm-30.515 33.176-23.506-23.506c-3.905-3.903-10.237-3.904-14.142 0-3.905 3.905-3.906 10.237 0 14.143l23.498 23.499c-9.387 6.592-20.806 10.477-33.122 10.477-31.879 0-57.815-25.924-57.815-57.788 0-31.88 25.936-57.816 57.815-57.816 31.863 0 57.786 25.937 57.786 57.816.001 12.339-3.9 23.778-10.514 33.175z"/><path d="m272.59 67.499c2.531 0 5.064-.955 7.011-2.87 3.938-3.872 3.991-10.203.119-14.142l-.029-.029c-3.873-3.936-10.188-3.977-14.127-.104-3.938 3.872-3.977 10.218-.104 14.156 1.957 1.991 4.543 2.989 7.13 2.989z"/></g></g></svg>