<?xml version="1.0" encoding="iso-8859-1"?>
<!-- Generator: Adobe Illustrator 19.0.0, SVG Export Plug-In . SVG Version: 6.00 Build 0)  -->
<svg version="1.1" id="Capa_1" xmlns="http://www.w3.org/2000/svg" xmlns:xlink="http://www.w3.org/1999/xlink" x="0px" y="0px"
	 viewBox="0 0 480 480" style="enable-background:new 0 0 480 480;" xml:space="preserve">
<g>
	<path style="fill:#FFEBDB;" d="M315.999,200h-32v40l-3.475,24.321c-2.359,16.513,10.286,31.249,26.87,31.612L315.999,240V200z"/>
	<path style="fill:#FFEBDB;" d="M411.999,240l8.605,55.933c16.583-0.363,29.229-15.099,26.87-31.612L443.999,240v-40h-32V240z"/>
</g>
<path style="fill:#4B6378;" d="M363.999,240h-48l-8.605,55.933c0.207,0.004,0.396,0.067,0.605,0.067
	c-0.208,0-0.398-0.063-0.605-0.067L299.999,344h16h32h16v-56v56h16h32h16l-7.395-48.067c-0.207,0.004-0.396,0.067-0.605,0.067
	c0.208,0,0.398-0.063,0.605-0.067L411.999,240H363.999z"/>
<path style="fill:#F0FAFF;" d="M75.999,144H64.068c-7.144,0-13.422,4.735-15.384,11.604L35.999,200h8h32V144z"/>
<path style="fill:#FFEBDB;" d="M75.999,240v-40h-32v40l-8.795,37.987c-3.811,9.528,1.661,20.229,11.616,22.718
	c1.916,0.479,3.828,0.513,5.705,0.328l9.648-25.086L75.999,240z"/>
<path style="fill:#F0FAFF;" d="M203.999,200h8l-12.685-44.396C197.352,148.735,191.074,144,183.93,144h-11.931v56H203.999z"/>
<path style="fill:#FFEBDB;" d="M171.999,240l13.826,35.947l9.648,25.086c1.877,0.185,3.789,0.151,5.705-0.328
	c9.956-2.489,15.427-13.19,11.616-22.718L203.999,240v-40h-32V240z"/>
<g>
	<polygon style="fill:#4B6378;" points="99.999,192 99.999,144 75.999,144 75.999,200 75.999,240 171.999,240 171.999,200 
		171.999,144 147.999,144 147.999,192 	"/>
	<polygon style="fill:#4B6378;" points="171.999,240 75.999,240 62.173,275.947 52.525,301.033 35.999,344 75.999,344 107.999,344 
		139.999,344 171.999,344 211.999,344 195.473,301.033 185.825,275.947 	"/>
</g>
<path style="fill:#FFEBDB;" d="M66.212,99.405c0.326,0.688,0.708,1.34,1.057,2.014c1,1.919,2.082,3.787,3.265,5.586
	c0.367,0.561,0.714,1.135,1.098,1.684c1.525,2.169,3.184,4.237,4.96,6.196c0.357,0.395,0.727,0.776,1.094,1.162
	c6.234,6.541,13.799,11.807,22.314,15.257V144c13.255,13.255,34.745,13.255,48,0v-12.696c8.515-3.45,16.08-8.716,22.314-15.257
	c0.367-0.386,0.737-0.767,1.094-1.162c1.777-1.959,3.435-4.027,4.96-6.196c0.384-0.549,0.731-1.123,1.098-1.684
	c1.183-1.799,2.265-3.667,3.265-5.586c0.349-0.674,0.731-1.327,1.057-2.014c1.004-2.109,1.844-4.307,2.615-6.536
	c0.357-1.036,0.697-2.079,1.001-3.139c1.629-5.64,2.596-11.563,2.596-17.73c-18.807,0-35.2-12.8-39.761-31.044L147.999,40
	l-19.996,19.996C120.317,67.682,109.893,72,99.023,72H59.999c0,6.167,0.967,12.09,2.596,17.73c0.305,1.06,0.645,2.103,1.001,3.139
	C64.368,95.098,65.207,97.295,66.212,99.405z"/>
<path style="fill:#F0FAFF;" d="M99.999,144v48h48v-48C134.744,157.255,113.254,157.255,99.999,144z"/>
<path style="fill:#383838;" d="M128.004,59.996L147.999,40l0.239,0.956C152.799,59.2,169.193,72,187.999,72
	c0-35.346-28.654-64-64-64s-64,28.654-64,64h39.023C109.893,72,120.317,67.682,128.004,59.996z"/>
<g>
	<polygon style="fill:#FFEBDB;" points="75.999,440 91.999,440 107.999,440 107.999,344 75.999,344 	"/>
	<polygon style="fill:#FFEBDB;" points="139.999,440 155.999,440 171.999,440 171.999,344 139.999,344 	"/>
</g>
<g>
	<path style="fill:#383838;" d="M67.999,464v8h48v-8c0-13.255-10.745-24-24-24S67.999,450.745,67.999,464z"/>
	<path style="fill:#383838;" d="M131.999,464v8h48v-8c0-13.255-10.745-24-24-24S131.999,450.745,131.999,464z"/>
</g>
<path style="fill:#FFEBDB;" d="M363.999,152l24-8v-12.696c23.445-9.499,40-32.452,40-59.304c-18.807,0-35.2-12.8-39.761-31.044
	L387.999,40l-19.996,19.996C360.317,67.682,349.893,72,339.023,72h-39.023c0,26.852,16.555,49.806,40,59.304V144L363.999,152z"/>
<path style="fill:#383838;" d="M368.004,59.996L387.999,40l0.239,0.956C392.799,59.2,409.193,72,427.999,72
	c0-35.346-28.654-64-64-64s-64,28.654-64,64h39.023C349.893,72,360.317,67.682,368.004,59.996z"/>
<path style="fill:#F0FAFF;" d="M439.315,155.604C437.352,148.735,431.074,144,423.93,144h-11.931h-24l-24,8l-24-8h-24h-11.931
	c-7.144,0-13.422,4.735-15.384,11.604L275.999,200h8h32v40h48h48v-40h32h8L439.315,155.604z"/>
<g>
	<polygon style="fill:#FFEBDB;" points="315.999,440 331.999,440 347.999,440 347.999,344 315.999,344 	"/>
	<polygon style="fill:#FFEBDB;" points="379.999,440 395.999,440 411.999,440 411.999,344 379.999,344 	"/>
</g>
<g>
	<path style="fill:#383838;" d="M307.999,464v8h48v-8c0-13.255-10.745-24-24-24S307.999,450.745,307.999,464z"/>
	<path style="fill:#383838;" d="M371.999,464v8h48v-8c0-13.255-10.745-24-24-24S371.999,450.745,371.999,464z"/>
	<path style="fill:#383838;" d="M83.645,121.651c-11.711-9.53-19.935-23.125-22.631-38.628c-19.24,6.96-33.014,25.336-33.014,46.977
		v14l32-16"/>
	<path style="fill:#383838;" d="M164.354,121.651c11.711-9.53,19.935-23.125,22.631-38.628c19.24,6.96,33.014,25.336,33.014,46.977
		v14l-32-16"/>
</g>
<path d="M19.999,130v14c0,3.031,1.711,5.797,4.422,7.156c1.133,0.563,2.359,0.844,3.578,0.844c1.695,0,3.391-0.539,4.797-1.602
	l32-24l-9.594-12.797l-19.156,14.359c0.68-13.766,8.221-26.163,19.692-33.385C61.58,112.318,74.103,127.268,91.184,136H75.999
	h-11.93c-10.656,0-20.148,7.156-23.078,17.406l-12.687,44.398c-0.688,2.414-0.203,5.008,1.305,7.016c1.516,2,3.883,3.18,6.391,3.18
	v31.086l-8.469,36.555c-2.406,6.531-1.984,13.773,1.195,19.992c2.74,5.355,7.352,9.38,12.834,11.615l-13.03,33.877
	c-0.945,2.461-0.617,5.234,0.875,7.406S33.366,352,35.999,352h32v91.056c-4.917,5.627-8,12.899-8,20.944v8c0,4.422,3.578,8,8,8h48
	c4.422,0,8-3.578,8-8c0,4.422,3.578,8,8,8h48c4.422,0,8-3.578,8-8v-8c0-8.044-3.083-15.316-8-20.944V352h32
	c2.633,0,5.102-1.297,6.594-3.469s1.82-4.945,0.875-7.406l-13.03-33.877c5.489-2.241,10.097-6.264,12.834-11.615
	c3.18-6.219,3.602-13.461,1.195-19.992l-8.469-36.555V208c2.508,0,4.875-1.18,6.391-3.18c1.508-2.008,1.992-4.602,1.305-7.016
	l-12.688-44.398c-2.93-10.25-12.422-17.406-23.078-17.406h-11.93h-15.185c17.081-8.732,29.604-23.682,35.446-41.424
	c11.471,7.223,19.013,19.62,19.692,33.385l-19.156-14.359l-9.594,12.797l32,24c1.406,1.063,3.094,1.602,4.797,1.602
	c1.219,0,2.445-0.281,3.578-0.844c2.711-1.359,4.422-4.125,4.422-7.156v-14c0-22.145-12.846-42.164-32.432-51.843
	c0.174-2.046,0.432-4.074,0.432-6.157c0-39.703-32.297-72-72-72s-72,32.297-72,72c0,2.083,0.258,4.11,0.432,6.157
	C32.845,87.836,19.999,107.855,19.999,130z M107.999,158.746c5.112,2.104,10.551,3.176,16,3.176c5.449,0,10.888-1.073,16-3.176V184
	h-32V158.746z M56.382,157.797c0.969-3.414,4.133-5.797,7.688-5.797h3.93v40H46.609L56.382,157.797z M42.968,288.344
	c-1.188-2.328-1.313-4.953-0.336-7.391c0.148-0.375,0.273-0.766,0.367-1.164l8.797-37.984c0.133-0.594,0.203-1.195,0.203-1.805v-32
	h16v30.506l-20.667,53.734C45.499,291.42,43.913,290.184,42.968,288.344z M99.999,352v81.136c-2.572-0.668-5.221-1.136-8-1.136
	s-5.428,0.467-8,1.136V352H99.999z M75.999,464c0-8.82,7.18-16,16-16s16,7.18,16,16H75.999z M123.999,464
	c0-8.044-3.083-15.316-8-20.944V352h16v91.056C127.082,448.684,123.999,455.956,123.999,464z M139.999,464c0-8.82,7.18-16,16-16
	s16,7.18,16,16H139.999z M163.999,433.136c-2.572-0.668-5.221-1.136-8-1.136s-5.428,0.467-8,1.136V352h16V433.136z M47.648,336
	l33.844-88h85.016l33.844,88H47.648z M196.202,241.805l8.797,37.984c0.094,0.398,0.219,0.789,0.367,1.164
	c0.977,2.438,0.852,5.063-0.336,7.391c-0.942,1.835-2.527,3.07-4.365,3.896l-20.667-53.733V208h16v32
	C195.999,240.609,196.069,241.211,196.202,241.805z M191.616,157.797L201.39,192h-21.391v-40h3.93
	C187.484,152,190.648,154.383,191.616,157.797z M163.999,232h-80v-80h8v40c0,4.422,3.578,8,8,8h48c4.422,0,8-3.578,8-8v-40h8V232z
	 M144.991,123.891c-3.016,1.227-4.992,4.156-4.992,7.414v8.952c-9.38,7.405-22.62,7.405-32,0v-8.952
	c0-3.258-1.977-6.188-4.992-7.414c-18.75-7.598-31.62-24.337-34.41-43.891h30.425c13.086,0,25.391-5.094,34.641-14.352
	l11.273-11.266c7.057,13.056,19.773,22.185,34.527,24.785C176.922,99.072,164.003,116.187,144.991,123.891z M123.999,16
	c27.697,0,50.705,20.24,55.161,46.69c-11.215-3.122-20.231-11.939-23.168-23.706l-0.242-0.953c-0.703-2.789-2.859-4.984-5.633-5.742
	c-2.75-0.781-5.734,0.008-7.773,2.055l-19.992,19.992C116.21,60.477,107.702,64,99.023,64H68.638C72.542,36.91,95.847,16,123.999,16
	z"/>
<path d="M304.069,136c-10.656,0-20.148,7.156-23.078,17.406l-12.688,44.398c-0.688,2.414-0.203,5.008,1.305,7.016
	c1.516,2,3.883,3.18,6.391,3.18v31.43l-3.398,23.766c-1.461,10.266,1.594,20.648,8.391,28.484
	c4.61,5.309,10.675,8.927,17.301,10.807l-6.199,40.295c-0.359,2.313,0.313,4.656,1.836,6.43c1.516,1.773,3.734,2.789,6.07,2.789h8
	v91.056c-4.917,5.627-8,12.899-8,20.944v8c0,4.422,3.578,8,8,8h48c4.422,0,8-3.578,8-8c0,4.422,3.578,8,8,8h48c4.422,0,8-3.578,8-8
	v-8c0-8.044-3.083-15.316-8-20.944V352h8c2.336,0,4.555-1.016,6.07-2.789c1.523-1.773,2.195-4.117,1.836-6.43l-6.199-40.295
	c6.625-1.879,12.691-5.498,17.301-10.807c6.797-7.836,9.852-18.219,8.391-28.492l-3.398-23.758V208c2.508,0,4.875-1.18,6.391-3.18
	c1.508-2.008,1.992-4.602,1.305-7.016l-12.688-44.398c-2.93-10.25-12.422-17.406-23.078-17.406h-11.93h-15.055
	c23.922-12.273,39.055-36.734,39.055-64c0-39.703-32.297-72-72-72s-72,32.297-72,72c0,27.266,15.133,51.727,39.055,64h-15.055
	H304.069z M363.999,163.313l18.344,18.344c1.547,1.547,3.594,2.344,5.656,2.344c1.539,0,3.086-0.438,4.438-1.344l11.563-7.708V232
	h-32v-56h-16v56h-32v-57.052l11.563,7.708c3.164,2.125,7.391,1.703,10.094-1L363.999,163.313z M371.999,336v-48h-16v48h-46.672
	l13.535-88h82.273l13.535,88H371.999z M296.382,157.797c0.969-3.414,4.133-5.797,7.688-5.797h3.93v40h-21.391L296.382,157.797z
	 M293.077,281.195c-3.75-4.336-5.445-10.07-4.633-15.742l3.477-24.32c0.055-0.375,0.078-0.758,0.078-1.133v-32h16v31.391
	l-7.253,47.143C297.836,285.379,295.18,283.612,293.077,281.195z M339.999,352v81.136c-2.572-0.668-5.221-1.136-8-1.136
	s-5.428,0.467-8,1.136V352H339.999z M315.999,464c0-8.82,7.18-16,16-16s16,7.18,16,16H315.999z M363.999,464
	c0-8.044-3.083-15.316-8-20.944V352h16v91.056C367.082,448.684,363.999,455.956,363.999,464z M379.999,464c0-8.82,7.18-16,16-16
	s16,7.18,16,16H379.999z M403.999,433.136c-2.572-0.668-5.221-1.136-8-1.136s-5.428,0.467-8,1.136V352h16V433.136z M436.077,241.133
	l3.477,24.313c0.813,5.68-0.883,11.414-4.633,15.75c-2.103,2.417-4.759,4.184-7.669,5.338l-7.253-47.143V208h16v32
	C435.999,240.375,436.023,240.758,436.077,241.133z M431.616,157.797L441.39,192h-21.391v-40h3.93
	C427.484,152,430.648,154.383,431.616,157.797z M403.999,152v3.718l-14.984,9.985l-10.209-10.209L389.288,152H403.999z M363.999,16
	c27.697,0,50.705,20.24,55.161,46.69c-11.215-3.122-20.231-11.939-23.168-23.706l-0.242-0.953c-0.703-2.789-2.859-4.984-5.633-5.742
	c-2.75-0.781-5.734,0.008-7.773,2.055l-19.992,19.992C356.21,60.477,347.702,64,339.023,64h-30.384
	C312.542,36.91,335.847,16,363.999,16z M308.597,80h30.425c13.086,0,25.391-5.094,34.641-14.352l11.273-11.266
	c7.057,13.056,19.773,22.185,34.527,24.785c-2.542,19.904-15.46,37.02-34.472,44.723c-3.016,1.227-4.992,4.156-4.992,7.414v6.932
	l-16,5.333l-16-5.333v-6.932c0-3.258-1.977-6.188-4.992-7.414C324.257,116.293,311.387,99.553,308.597,80z M338.71,152l10.482,3.494
	l-10.209,10.209l-14.984-9.985V152H338.71z"/>
<g>
</g>
<g>
</g>
<g>
</g>
<g>
</g>
<g>
</g>
<g>
</g>
<g>
</g>
<g>
</g>
<g>
</g>
<g>
</g>
<g>
</g>
<g>
</g>
<g>
</g>
<g>
</g>
<g>
</g>
</svg>
